<mxfile host="65bd71144e">
    <diagram id="0L2I5ax8AHC3mzfnR4No" name="Page-1">
        <mxGraphModel dx="933" dy="521" grid="1" gridSize="10" guides="1" tooltips="1" connect="1" arrows="1" fold="1" page="1" pageScale="1" pageWidth="850" pageHeight="1100" math="0" shadow="0">
            <root>
                <mxCell id="0"/>
                <mxCell id="1" parent="0"/>
                <mxCell id="2" value="user.js" style="rounded=0;whiteSpace=wrap;html=1;" vertex="1" parent="1">
                    <mxGeometry x="420" y="40" width="120" height="60" as="geometry"/>
                </mxCell>
                <mxCell id="3" value="&lt;h1&gt;&lt;font style=&quot;font-size: 11px;&quot;&gt;user.js handles state for User, Errors, SignUp, Login&lt;br&gt;cb fns for AddNewMatch, DeleteMatch and EditMatch Logout are here&lt;/font&gt;&lt;/h1&gt;&lt;div&gt;&lt;font style=&quot;font-size: 11px;&quot;&gt;User Context here and UserProvider fn and useEffects&lt;br&gt;&lt;/font&gt;&lt;/div&gt;&lt;div&gt;&lt;font style=&quot;font-size: 11px;&quot;&gt;User Context is provided to all components that need it&lt;/font&gt;&lt;/div&gt;&lt;div&gt;passed down as children&lt;/div&gt;&lt;div&gt;&lt;br&gt;&lt;/div&gt;&lt;div&gt;Might also need a Clubs context in addition to user context&amp;nbsp;&lt;/div&gt;&lt;h1&gt;&lt;br&gt;&lt;/h1&gt;" style="text;html=1;strokeColor=none;fillColor=none;spacing=5;spacingTop=-20;whiteSpace=wrap;overflow=hidden;rounded=0;" vertex="1" parent="1">
                    <mxGeometry x="560" y="20" width="300" height="220" as="geometry"/>
                </mxCell>
                <mxCell id="7" value="" style="edgeStyle=none;html=1;fontSize=11;" edge="1" parent="1" source="4" target="6">
                    <mxGeometry relative="1" as="geometry"/>
                </mxCell>
                <mxCell id="4" value="index.js&amp;nbsp;&lt;br&gt;&lt;br&gt;has UserProvider&lt;br&gt;BrowserRouter, and Wrap fn for Router, UserProvider and App" style="rounded=0;whiteSpace=wrap;html=1;fontSize=11;" vertex="1" parent="1">
                    <mxGeometry x="240" y="90" width="150" height="90" as="geometry"/>
                </mxCell>
                <mxCell id="10" style="edgeStyle=none;html=1;entryX=0.99;entryY=0.139;entryDx=0;entryDy=0;entryPerimeter=0;fontSize=11;" edge="1" parent="1" source="6" target="9">
                    <mxGeometry relative="1" as="geometry"/>
                </mxCell>
                <mxCell id="16" style="edgeStyle=none;html=1;entryX=0.682;entryY=-0.072;entryDx=0;entryDy=0;entryPerimeter=0;fontSize=11;" edge="1" parent="1" source="6" target="15">
                    <mxGeometry relative="1" as="geometry"/>
                </mxCell>
                <mxCell id="18" style="edgeStyle=none;html=1;fontSize=11;" edge="1" parent="1" source="6" target="17">
                    <mxGeometry relative="1" as="geometry"/>
                </mxCell>
                <mxCell id="20" style="edgeStyle=none;html=1;fontSize=11;" edge="1" parent="1" source="6" target="19">
                    <mxGeometry relative="1" as="geometry"/>
                </mxCell>
                <mxCell id="23" style="edgeStyle=none;html=1;entryX=0.16;entryY=-0.042;entryDx=0;entryDy=0;entryPerimeter=0;fontSize=11;" edge="1" parent="1" source="6" target="22">
                    <mxGeometry relative="1" as="geometry"/>
                </mxCell>
                <mxCell id="25" style="edgeStyle=none;html=1;entryX=0.25;entryY=0;entryDx=0;entryDy=0;fontSize=11;" edge="1" parent="1" source="6" target="11">
                    <mxGeometry relative="1" as="geometry"/>
                </mxCell>
                <mxCell id="37" style="edgeStyle=none;html=1;entryX=0.176;entryY=-0.022;entryDx=0;entryDy=0;entryPerimeter=0;fontSize=11;" edge="1" parent="1" source="6" target="28">
                    <mxGeometry relative="1" as="geometry"/>
                </mxCell>
                <mxCell id="39" style="edgeStyle=none;html=1;fontSize=11;" edge="1" parent="1" source="6" target="13">
                    <mxGeometry relative="1" as="geometry"/>
                </mxCell>
                <mxCell id="6" value="App&amp;nbsp;&lt;br&gt;has react router routes for components" style="rounded=0;whiteSpace=wrap;html=1;fontSize=11;" vertex="1" parent="1">
                    <mxGeometry x="252.5" y="220" width="125" height="110" as="geometry"/>
                </mxCell>
                <mxCell id="8" value="Home, MyMatches, Matches, EditMatch, AddMatchForm, MatchBoard, NavBar, SignUp, Login, AllClubs, Navigation" style="text;html=1;strokeColor=none;fillColor=none;align=center;verticalAlign=middle;whiteSpace=wrap;rounded=0;fontSize=11;" vertex="1" parent="1">
                    <mxGeometry x="390" y="230" width="170" height="80" as="geometry"/>
                </mxCell>
                <mxCell id="9" value="Home&amp;nbsp;&lt;br&gt;displays home page or prompts login" style="rounded=0;whiteSpace=wrap;html=1;fontSize=11;" vertex="1" parent="1">
                    <mxGeometry x="20" y="310" width="120" height="60" as="geometry"/>
                </mxCell>
                <mxCell id="35" style="edgeStyle=none;html=1;entryX=0.5;entryY=0;entryDx=0;entryDy=0;fontSize=11;" edge="1" parent="1" source="11" target="31">
                    <mxGeometry relative="1" as="geometry"/>
                </mxCell>
                <mxCell id="11" value="Matches&amp;nbsp;&lt;br&gt;maps over clubs so you can go to Match Form add a match and then post it to Match Board" style="rounded=0;whiteSpace=wrap;html=1;fontSize=11;" vertex="1" parent="1">
                    <mxGeometry x="360" y="750" width="160" height="80" as="geometry"/>
                </mxCell>
                <mxCell id="13" value="EditMatch&lt;br&gt;holds state for form to edit match (update, delete) link to match card" style="rounded=0;whiteSpace=wrap;html=1;fontSize=11;" vertex="1" parent="1">
                    <mxGeometry x="610" y="570" width="140" height="90" as="geometry"/>
                </mxCell>
                <mxCell id="15" value="SignUp&lt;br&gt;holds state for form to sign up (fetchUser fn)" style="rounded=0;whiteSpace=wrap;html=1;fontSize=11;" vertex="1" parent="1">
                    <mxGeometry x="40" y="550" width="120" height="60" as="geometry"/>
                </mxCell>
                <mxCell id="17" value="Login&lt;br&gt;holds state for form to Login (fetchUser fn)" style="rounded=0;whiteSpace=wrap;html=1;fontSize=11;" vertex="1" parent="1">
                    <mxGeometry x="110" y="630" width="120" height="60" as="geometry"/>
                </mxCell>
                <mxCell id="33" style="edgeStyle=none;html=1;entryX=0.75;entryY=0;entryDx=0;entryDy=0;fontSize=11;" edge="1" parent="1" source="19" target="29">
                    <mxGeometry relative="1" as="geometry"/>
                </mxCell>
                <mxCell id="19" value="AllClubs&lt;br&gt;Shows all Clubs in a list and each club has a &quot;Add Match to this Club&quot; button" style="rounded=0;whiteSpace=wrap;html=1;fontSize=11;" vertex="1" parent="1">
                    <mxGeometry x="190" y="720" width="140" height="80" as="geometry"/>
                </mxCell>
                <mxCell id="22" value="MatchBoard&amp;nbsp;&lt;br&gt;displays posted MatchCard(s) and each card has a &quot;Join Match&quot; btn" style="rounded=0;whiteSpace=wrap;html=1;fontSize=11;" vertex="1" parent="1">
                    <mxGeometry x="580" y="440" width="135" height="70" as="geometry"/>
                </mxCell>
                <mxCell id="24" value="AddMatchForm&lt;br&gt;holds state for new match" style="rounded=0;whiteSpace=wrap;html=1;fontSize=11;" vertex="1" parent="1">
                    <mxGeometry x="20" y="910" width="140" height="70" as="geometry"/>
                </mxCell>
                <mxCell id="28" value="MyMatches&lt;br&gt;renders user's pending matches and&amp;nbsp;&lt;br&gt;accepted matches" style="rounded=0;whiteSpace=wrap;html=1;fontSize=11;" vertex="1" parent="1">
                    <mxGeometry x="552.5" y="710" width="190" height="100" as="geometry"/>
                </mxCell>
                <mxCell id="38" style="edgeStyle=none;html=1;entryX=0.901;entryY=-0.059;entryDx=0;entryDy=0;entryPerimeter=0;fontSize=11;" edge="1" parent="1" source="29" target="24">
                    <mxGeometry relative="1" as="geometry"/>
                </mxCell>
                <mxCell id="29" value="ClubCard&lt;br&gt;shows each individual club" style="rounded=0;whiteSpace=wrap;html=1;fontSize=11;" vertex="1" parent="1">
                    <mxGeometry x="140" y="830" width="120" height="60" as="geometry"/>
                </mxCell>
                <mxCell id="31" value="MatchCard&lt;br&gt;shows each individual match&lt;br&gt;&lt;br&gt;has area for comments? State for comments would be needed as well" style="whiteSpace=wrap;html=1;fontSize=11;" vertex="1" parent="1">
                    <mxGeometry x="390" y="880" width="160" height="90" as="geometry"/>
                </mxCell>
                <mxCell id="36" value="Phase 5 flow chart&lt;br&gt;Tennis Club Booking App&lt;br&gt;Capstone&amp;nbsp;" style="text;html=1;strokeColor=none;fillColor=none;align=center;verticalAlign=middle;whiteSpace=wrap;rounded=0;fontSize=11;" vertex="1" parent="1">
                    <mxGeometry x="20" y="40" width="130" height="100" as="geometry"/>
                </mxCell>
            </root>
        </mxGraphModel>
    </diagram>
</mxfile>